<?xml version="1.0" encoding="utf-8"?>
<!-- Generator: Adobe Illustrator 23.0.4, SVG Export Plug-In . SVG Version: 6.00 Build 0)  -->
<svg version="1.1" id="Warstwa_1" xmlns="http://www.w3.org/2000/svg" xmlns:xlink="http://www.w3.org/1999/xlink" x="0px" y="0px"
	 viewBox="0 0 115 24" enable-background="new 0 0 115 24" xml:space="preserve">
<path fill="#97B190" d="M93.12,1.267c0.094-0.102,0.111-0.198,0.055-0.284c-0.06-0.086-0.165-0.13-0.319-0.135H88.12
	c-0.038,0-0.089,0.017-0.144,0.038c-0.06,0.022-0.104,0.038-0.122,0.058l-9.159,10.892l9.159,10.893
	c0.018,0.02,0.062,0.037,0.122,0.058c0.055,0.021,0.105,0.038,0.144,0.038h4.737c0.154-0.006,0.259-0.048,0.319-0.135
	c0.056-0.086,0.039-0.182-0.055-0.284l-8.852-10.571L93.12,1.267L93.12,1.267z"/>
<path fill="#5082B9" d="M48.355,0.715c-0.1,0-0.182,0.027-0.237,0.08c-0.061,0.047-0.094,0.105-0.094,0.174v21.736
	c0,0.064,0.033,0.122,0.094,0.175c0.055,0.047,0.137,0.074,0.237,0.08h3.743c0.96,0.005,1.96-0.053,2.987-0.175
	c1.026-0.116,2.042-0.328,3.046-0.63c1.006-0.296,1.949-0.715,2.838-1.25c0.889-0.535,1.678-1.213,2.362-2.034
	c0.685-0.825,1.226-1.821,1.618-2.992c0.392-1.171,0.591-2.537,0.596-4.105c-0.006-1.626-0.21-3.029-0.607-4.215
	c-0.398-1.187-0.945-2.188-1.635-3.004c-0.695-0.81-1.49-1.472-2.385-1.98c-0.895-0.509-1.843-0.896-2.848-1.166
	c-1.005-0.27-2.015-0.455-3.03-0.556c-1.021-0.095-2.004-0.144-2.942-0.138H48.355L48.355,0.715z M52.429,4.655
	c1.258-0.069,2.412-0.01,3.472,0.174c1.055,0.192,1.977,0.551,2.76,1.086c0.784,0.53,1.391,1.271,1.822,2.23
	c0.431,0.953,0.651,2.166,0.657,3.627c-0.006,1.134-0.155,2.108-0.454,2.914c-0.292,0.81-0.69,1.483-1.186,2.023
	c-0.497,0.535-1.055,0.964-1.673,1.282c-0.618,0.318-1.253,0.551-1.904,0.698c-0.652,0.154-1.281,0.244-1.882,0.281
	c-0.602,0.037-1.142,0.042-1.612,0.016V4.655L52.429,4.655z"/>
<path fill="#5082B9" d="M70.314,22.705c0,0.064,0.033,0.122,0.094,0.175c0.055,0.047,0.138,0.074,0.236,0.08h3.744
	c0.099-0.006,0.181-0.032,0.236-0.08c0.061-0.053,0.094-0.111,0.094-0.175V0.969c0-0.069-0.033-0.127-0.094-0.174
	c-0.055-0.053-0.138-0.08-0.236-0.08h-3.744c-0.099,0-0.181,0.027-0.236,0.08c-0.061,0.047-0.094,0.105-0.094,0.174V22.705
	L70.314,22.705z"/>
<path fill="#5082B9" d="M110.627,23.059c-0.067,0-0.133-0.015-0.187-0.042c-0.056-0.032-0.095-0.069-0.111-0.117l-4.637-12.426
	L101.055,22.9c-0.017,0.048-0.056,0.085-0.11,0.117c-0.055,0.027-0.122,0.042-0.188,0.042h-4.041c-0.115,0-0.205-0.037-0.254-0.1
	c-0.055-0.069-0.055-0.149-0.011-0.249l8.942-22.309c0.039-0.063,0.094-0.105,0.166-0.127c0.077-0.022,0.155-0.022,0.232,0
	c0.071,0.022,0.126,0.064,0.165,0.127l9.009,22.309c0.05,0.1,0.044,0.18-0.011,0.249c-0.055,0.063-0.155,0.1-0.287,0.1H110.627
	L110.627,23.059z"/>
<path fill="#5082B9" d="M31.223,0c-1.545,0.005-2.931,0.231-4.156,0.664c-1.231,0.434-2.302,1.032-3.224,1.8
	c-0.916,0.763-1.678,1.647-2.291,2.651c-0.607,0.998-1.066,2.068-1.369,3.21c-0.304,1.146-0.453,2.31-0.453,3.495
	c0,1.186,0.149,2.355,0.453,3.497c0.303,1.142,0.762,2.217,1.369,3.221c0.613,1.004,1.374,1.893,2.291,2.661
	c0.922,0.769,1.993,1.373,3.224,1.806c1.226,0.438,2.611,0.658,4.156,0.669c1.518-0.011,2.887-0.231,4.102-0.669
	c1.214-0.433,2.285-1.037,3.196-1.806c0.916-0.768,1.678-1.657,2.291-2.661c0.613-1.004,1.071-2.079,1.38-3.221
	c0.304-1.142,0.458-2.311,0.458-3.497c0-1.185-0.154-2.349-0.458-3.495c-0.309-1.142-0.767-2.212-1.38-3.21
	c-0.613-1.005-1.374-1.888-2.291-2.651c-0.911-0.768-1.982-1.366-3.196-1.8C34.111,0.231,32.742,0.005,31.223,0L31.223,0z
	 M31.223,19.527c-0.933-0.006-1.772-0.149-2.517-0.428c-0.751-0.28-1.402-0.664-1.959-1.163c-0.558-0.493-1.027-1.06-1.397-1.707
	c-0.37-0.647-0.651-1.339-0.839-2.079c-0.182-0.742-0.276-1.493-0.276-2.261c0-0.774,0.094-1.537,0.276-2.283
	c0.188-0.742,0.469-1.443,0.839-2.097c0.369-0.648,0.839-1.224,1.397-1.723c0.557-0.5,1.209-0.889,1.959-1.175
	c0.745-0.28,1.584-0.422,2.517-0.428c0.923,0.006,1.75,0.148,2.49,0.428c0.74,0.286,1.391,0.675,1.949,1.175
	c0.558,0.499,1.021,1.075,1.397,1.723c0.37,0.654,0.651,1.355,0.839,2.097c0.187,0.746,0.281,1.509,0.281,2.283
	c0,0.768-0.094,1.52-0.281,2.261c-0.188,0.741-0.469,1.432-0.839,2.079c-0.375,0.648-0.839,1.214-1.397,1.707
	c-0.558,0.499-1.209,0.884-1.949,1.163C32.973,19.378,32.146,19.521,31.223,19.527L31.223,19.527z"/>
<path fill="#5082B9" d="M12.351,0c-1.546,0.005-2.931,0.231-4.157,0.664c-1.23,0.434-2.302,1.032-3.223,1.8
	C4.054,3.227,3.292,4.11,2.679,5.115C2.072,6.113,1.614,7.184,1.31,8.325c-0.303,1.146-0.453,2.31-0.453,3.495
	c0,1.186,0.149,2.355,0.453,3.497c0.304,1.142,0.762,2.217,1.369,3.221c0.613,1.004,1.374,1.893,2.291,2.661
	c0.922,0.769,1.993,1.373,3.223,1.806c1.226,0.438,2.611,0.658,4.157,0.669c1.518-0.011,2.887-0.231,4.102-0.669
	c0.306-0.11,0.601-0.228,0.888-0.359l-1.028-4.33c-0.443,0.318-0.934,0.577-1.472,0.781c-0.74,0.28-1.567,0.423-2.489,0.428
	c-0.933-0.006-1.772-0.149-2.517-0.428c-0.751-0.28-1.402-0.664-1.96-1.163c-0.558-0.493-1.027-1.06-1.396-1.707
	c-0.37-0.647-0.651-1.339-0.839-2.079c-0.183-0.742-0.276-1.493-0.276-2.261c0-0.774,0.094-1.537,0.276-2.283
	c0.188-0.742,0.469-1.443,0.839-2.097c0.37-0.648,0.839-1.224,1.396-1.723c0.558-0.5,1.209-0.889,1.96-1.175
	c0.745-0.28,1.584-0.422,2.517-0.428c0.922,0.006,1.75,0.148,2.489,0.428c0.514,0.198,0.985,0.447,1.412,0.748l1.19-4.289
	c-0.319-0.148-0.649-0.283-0.99-0.405C15.238,0.231,13.869,0.005,12.351,0L12.351,0z"/>
</svg>
